<?xml version="1.0" encoding="UTF-8"?>
<svg version="1.1" xmlns="http://www.w3.org/2000/svg" width="107" height="97">
<path d="M0 0 C0.99 0 1.98 0 3 0 C3.42152344 1.21558594 3.84304687 2.43117187 4.27734375 3.68359375 C4.83057808 5.26828192 5.38397172 6.85291448 5.9375 8.4375 C6.35418945 9.64116211 6.35418945 9.64116211 6.77929688 10.86914062 C7.04677734 11.63291016 7.31425781 12.39667969 7.58984375 13.18359375 C7.83597412 13.89056396 8.08210449 14.59753418 8.33569336 15.32592773 C8.87467975 17.00682632 8.87467975 17.00682632 10 18 C11.98 12.06 13.96 6.12 16 0 C17.32 0.33 18.64 0.66 20 1 C21.13577109 3.50467415 21.97756607 5.76135565 22.75 8.375 C22.97042969 9.06078125 23.19085938 9.7465625 23.41796875 10.453125 C24.34155414 13.40171438 25 15.89438074 25 19 C25.66 19 26.32 19 27 19 C27.2475 17.72125 27.495 16.4425 27.75 15.125 C28.91164561 9.830253 30.86340266 4.96810741 33 0 C33.66 0 34.32 0 35 0 C33.48526781 7.98676972 30.83197448 15.40122878 28 23 C26.68 23 25.36 23 24 23 C23.16112944 20.56427941 22.32873471 18.12666783 21.5 15.6875 C21.14228516 14.65206055 21.14228516 14.65206055 20.77734375 13.59570312 C19.76791737 10.61068511 19 8.17341086 19 5 C18.34 5 17.68 5 17 5 C16.7525 6.27875 16.505 7.5575 16.25 8.875 C15.08835439 14.169747 13.13659734 19.03189259 11 24 C10.01 24 9.02 24 8 24 C5.36 16.08 2.72 8.16 0 0 Z " fill="#DBDBDB" transform="translate(36,43)"/>
<path d="M0 0 C0.99 0 1.98 0 3 0 C3.00410889 0.76143311 3.00821777 1.52286621 3.01245117 2.30737305 C3.0454114 5.76819666 3.11606054 9.22726571 3.1875 12.6875 C3.19330078 13.88568359 3.19910156 15.08386719 3.20507812 16.31835938 C3.1119215 23.36121624 3.1119215 23.36121624 6.33203125 29.29296875 C9.89667798 31.57371636 11.84444664 31.7420631 16 31 C18.5940529 29.34026191 19.57428462 28.63126881 21 26 C21.766711 21.56842563 21.79076467 17.17705257 21.8125 12.6875 C21.83763672 11.46998047 21.86277344 10.25246094 21.88867188 8.99804688 C21.94748901 5.99837313 21.98381039 3.00015702 22 0 C22.99 0 23.98 0 25 0 C25.08746928 4.04152915 25.14054982 8.08281305 25.1875 12.125 C25.21263672 13.26710938 25.23777344 14.40921875 25.26367188 15.5859375 C25.3563424 26.21215735 25.3563424 26.21215735 22 31 C18.32949993 34.23867653 14.86251564 34.46918667 10.1484375 34.28125 C7.06396445 33.87746444 5.3338432 33.05927341 3 31 C-1.08262315 25.17611348 -0.33728633 18.93067638 -0.1875 12.125 C-0.17396484 10.9596875 -0.16042969 9.794375 -0.14648438 8.59375 C-0.11125821 5.72868882 -0.06199715 2.86458623 0 0 Z " fill="#DDDDDD" transform="translate(6,33)"/>
<path d="M0 0 C0.66 0 1.32 0 2 0 C2.01981934 0.6705542 2.03963867 1.3411084 2.06005859 2.03198242 C2.15559715 5.08420161 2.26515945 8.13576341 2.375 11.1875 C2.4059375 12.24259766 2.436875 13.29769531 2.46875 14.38476562 C2.50742188 15.40634766 2.54609375 16.42792969 2.5859375 17.48046875 C2.6173584 18.41785889 2.6487793 19.35524902 2.68115234 20.32104492 C3.12747369 24.07103277 4.13876791 26.96652149 6.5625 29.875 C10.30240463 31.60110983 14.11601059 31.30896881 18 30 C21.09529142 26.7805381 21.40420398 24.30847763 21.51171875 19.921875 C21.54716797 18.76171875 21.58261719 17.6015625 21.61914062 16.40625 C21.64169922 15.1996875 21.66425781 13.993125 21.6875 12.75 C21.72166016 11.52796875 21.75582031 10.3059375 21.79101562 9.046875 C21.87347162 6.03134154 21.94263201 3.01609806 22 0 C22.99 0 23.98 0 25 0 C25.08770383 3.85402129 25.14062735 7.70778291 25.1875 11.5625 C25.21263672 12.64853516 25.23777344 13.73457031 25.26367188 14.85351562 C25.32004853 21.03615524 25.08174568 25.58089166 22 31 C18.32146729 34.45559133 14.29413583 34.5632852 9.4453125 34.42578125 C5.41101875 33.72332435 3.72731817 32.00704311 1 29 C-0.07917226 25.76248322 -0.11425601 23.42248229 -0.09765625 20.01953125 C-0.09443359 18.85615234 -0.09121094 17.69277344 -0.08789062 16.49414062 C-0.07951172 15.27919922 -0.07113281 14.06425781 -0.0625 12.8125 C-0.05798828 11.58595703 -0.05347656 10.35941406 -0.04882812 9.09570312 C-0.03703065 6.06375332 -0.02056921 3.03190094 0 0 Z " fill="#E0E0E0" transform="translate(77,33)"/>
</svg>
